<svg id="svg" version="1.1" xmlns="http://www.w3.org/2000/svg" xmlns:xlink="http://www.w3.org/1999/xlink" width="400"
     height="400" viewBox="0, 0, 400,400">
    <g id="svgg">
        <path id="path0"
              d="M65.625 200.000 L 65.625 375.000 200.208 375.000 L 334.792 375.000 334.787 241.198 L 334.783 107.396 322.652 95.205 C 302.074 74.527,264.263 36.441,258.485 30.573 L 252.998 25.000 159.311 25.000 L 65.625 25.000 65.625 200.000 M242.500 78.542 L 242.500 117.708 281.354 117.708 L 320.208 117.708 320.208 239.271 L 320.208 360.833 200.104 360.833 L 80.000 360.833 80.000 200.104 L 80.000 39.375 161.250 39.375 L 242.500 39.375 242.500 78.542 M283.823 76.458 C 298.423 91.182,310.327 103.299,310.276 103.385 C 310.225 103.471,298.189 103.542,283.529 103.542 L 256.875 103.542 256.875 76.545 C 256.875 59.265,256.947 49.574,257.076 49.618 C 257.187 49.656,269.223 61.734,283.823 76.458 "
              stroke="none" fill="#0c294a" fill-rule="evenodd"/>
        <path id="path1"
              d="M80.000 200.104 L 80.000 360.833 200.104 360.833 L 320.208 360.833 320.208 239.271 L 320.208 117.708 281.354 117.708 L 242.500 117.708 242.500 78.542 L 242.500 39.375 161.250 39.375 L 80.000 39.375 80.000 200.104 M256.875 76.489 L 256.875 103.333 283.438 103.333 C 298.047 103.333,310.000 103.270,310.000 103.194 C 310.000 103.117,305.694 98.734,300.432 93.454 C 295.170 88.174,287.570 80.526,283.544 76.458 C 279.518 72.391,271.871 64.694,266.550 59.354 L 256.875 49.646 256.875 76.489 M262.766 172.802 C 284.001 175.764,299.071 190.316,299.942 208.698 L 300.063 211.250 291.490 211.250 L 282.917 211.250 282.917 210.255 C 282.917 194.716,270.247 185.096,251.544 186.434 C 236.956 187.478,228.781 194.400,228.389 206.042 C 228.003 217.519,235.408 223.673,257.451 230.194 C 287.323 239.031,298.696 248.799,300.240 266.944 C 302.134 289.208,284.291 304.231,255.938 304.247 C 227.672 304.263,207.063 287.973,206.877 265.469 C 206.875 265.265,208.742 265.208,215.521 265.208 L 224.167 265.208 224.168 266.510 C 224.176 279.689,235.412 289.143,252.314 290.194 C 271.486 291.385,283.004 283.849,283.017 270.104 C 283.030 257.640,276.953 252.711,252.423 245.287 C 225.113 237.021,213.229 227.238,211.242 211.382 C 208.165 186.840,232.543 168.586,262.766 172.802 M190.159 180.264 L 190.215 186.465 155.003 237.403 C 135.637 265.419,119.792 288.386,119.792 288.441 C 119.792 288.496,136.245 288.542,156.354 288.542 L 192.917 288.542 192.917 295.521 L 192.917 302.500 146.146 302.500 L 99.375 302.500 99.375 296.138 L 99.375 289.775 134.457 239.002 L 169.538 188.229 135.082 188.176 L 100.625 188.124 100.625 181.041 L 100.625 173.957 145.365 174.010 L 190.104 174.063 190.159 180.264 "
              stroke="none" fill="#fbfbfb" fill-rule="evenodd"/>
        <path id="path2"
              d="M251.354 172.531 C 225.154 173.591,207.425 191.756,211.628 213.234 C 214.619 228.519,226.234 237.343,254.528 245.827 C 275.299 252.055,281.947 257.168,283.147 267.841 C 284.721 281.821,274.269 290.320,255.521 290.308 C 236.725 290.296,225.252 281.808,224.057 267.031 L 223.909 265.208 215.496 265.208 L 207.083 265.208 207.083 266.516 C 207.083 288.005,228.035 304.070,256.042 304.055 C 285.116 304.041,302.706 288.586,300.011 265.423 C 298.092 248.928,286.197 238.792,259.515 230.917 C 235.674 223.881,228.287 218.196,228.273 206.875 C 228.256 193.441,238.583 185.822,256.146 186.312 C 272.507 186.769,282.909 195.832,282.916 209.635 L 282.917 211.250 291.458 211.250 L 300.000 211.250 300.000 210.115 C 300.000 200.259,294.388 189.063,286.178 182.539 C 276.974 175.225,265.594 171.954,251.354 172.531 M100.625 181.041 L 100.625 187.915 135.198 187.968 L 169.772 188.021 154.513 210.104 C 146.121 222.250,130.282 245.185,119.315 261.070 L 99.375 289.952 99.375 296.226 L 99.375 302.500 146.146 302.500 L 192.917 302.500 192.917 295.625 L 192.917 288.750 159.635 288.744 C 132.079 288.739,119.865 288.654,119.658 288.465 C 119.641 288.450,124.524 281.359,130.507 272.708 C 136.491 264.057,152.325 241.144,165.693 221.790 L 190.000 186.600 190.000 180.383 L 190.000 174.167 145.313 174.167 L 100.625 174.167 100.625 181.041 "
              stroke="none" fill="#5599dd" fill-rule="evenodd"/>
        <path id="path3"
              d="M252.443 172.442 C 252.813 172.488,253.469 172.489,253.902 172.444 C 254.334 172.399,254.031 172.361,253.229 172.360 C 252.427 172.359,252.073 172.396,252.443 172.442 M255.365 172.442 C 255.737 172.489,256.346 172.489,256.719 172.442 C 257.091 172.396,256.786 172.358,256.042 172.358 C 255.297 172.358,254.992 172.396,255.365 172.442 M190.092 180.313 C 190.092 183.750,190.121 185.185,190.156 183.502 C 190.191 181.819,190.191 179.007,190.156 177.252 C 190.121 175.498,190.092 176.875,190.092 180.313 M220.305 184.844 L 219.271 185.938 220.365 184.904 C 220.966 184.335,221.458 183.843,221.458 183.810 C 221.458 183.654,221.265 183.827,220.305 184.844 M117.865 188.073 C 127.404 188.103,143.013 188.103,152.552 188.073 C 162.091 188.043,154.286 188.018,135.208 188.018 C 116.130 188.018,108.326 188.043,117.865 188.073 M276.354 193.750 C 276.918 194.323,277.427 194.792,277.484 194.792 C 277.542 194.792,277.127 194.323,276.563 193.750 C 275.998 193.177,275.490 192.708,275.432 192.708 C 275.375 192.708,275.790 193.177,276.354 193.750 M228.173 206.042 C 228.173 206.443,228.216 206.607,228.269 206.406 C 228.321 206.206,228.321 205.878,228.269 205.677 C 228.216 205.477,228.173 205.641,228.173 206.042 M219.792 228.854 C 220.414 229.484,220.970 230.000,221.027 230.000 C 221.085 230.000,220.622 229.484,220.000 228.854 C 219.378 228.224,218.822 227.708,218.764 227.708 C 218.707 227.708,219.169 228.224,219.792 228.854 M224.018 266.146 C 224.019 266.719,224.060 266.928,224.108 266.612 C 224.156 266.295,224.154 265.826,224.105 265.570 C 224.056 265.314,224.016 265.573,224.018 266.146 M283.173 269.167 C 283.173 269.568,283.216 269.732,283.269 269.531 C 283.321 269.331,283.321 269.003,283.269 268.802 C 283.216 268.602,283.173 268.766,283.173 269.167 M230.417 281.771 C 231.039 282.401,231.595 282.917,231.652 282.917 C 231.710 282.917,231.247 282.401,230.625 281.771 C 230.003 281.141,229.447 280.625,229.389 280.625 C 229.332 280.625,229.794 281.141,230.417 281.771 M141.615 288.698 C 151.039 288.728,166.461 288.728,175.885 288.698 C 185.310 288.668,177.599 288.643,158.750 288.643 C 139.901 288.643,132.190 288.668,141.615 288.698 M255.267 304.320 C 255.814 304.363,256.658 304.363,257.142 304.319 C 257.625 304.275,257.177 304.240,256.146 304.241 C 255.115 304.241,254.719 304.277,255.267 304.320 "
              stroke="none" fill="#97bee4" fill-rule="evenodd"/>
        <path id="path4"
              d="M261.563 54.167 C 264.081 56.688,266.189 58.750,266.246 58.750 C 266.304 58.750,264.290 56.688,261.771 54.167 C 259.252 51.646,257.144 49.583,257.087 49.583 C 257.030 49.583,259.044 51.646,261.563 54.167 M285.104 77.917 C 288.540 81.354,291.398 84.167,291.456 84.167 C 291.513 84.167,288.749 81.354,285.313 77.917 C 281.876 74.479,279.018 71.667,278.961 71.667 C 278.904 71.667,281.668 74.479,285.104 77.917 M283.542 103.333 L 256.771 103.440 283.477 103.491 C 301.112 103.524,310.227 103.471,310.313 103.333 C 310.383 103.219,310.412 103.148,310.377 103.176 C 310.341 103.204,298.266 103.275,283.542 103.333 "
              stroke="none" fill="#7c7c7c" fill-rule="evenodd"/>
        <path id="path5"
              d="M122.985 174.115 C 135.341 174.144,155.497 174.144,167.777 174.115 C 180.057 174.085,169.948 174.061,145.313 174.061 C 120.677 174.061,110.630 174.085,122.985 174.115 M251.719 186.394 C 251.919 186.446,252.247 186.446,252.448 186.394 C 252.648 186.341,252.484 186.298,252.083 186.298 C 251.682 186.298,251.518 186.341,251.719 186.394 M257.135 186.394 C 257.336 186.446,257.664 186.446,257.865 186.394 C 258.065 186.341,257.901 186.298,257.500 186.298 C 257.099 186.298,256.935 186.341,257.135 186.394 M291.042 246.771 C 291.664 247.401,292.220 247.917,292.277 247.917 C 292.335 247.917,291.872 247.401,291.250 246.771 C 290.628 246.141,290.072 245.625,290.014 245.625 C 289.957 245.625,290.419 246.141,291.042 246.771 M300.271 268.750 C 300.271 269.380,300.310 269.638,300.358 269.323 C 300.405 269.008,300.405 268.492,300.358 268.177 C 300.310 267.862,300.271 268.120,300.271 268.750 M300.268 270.938 C 300.269 271.510,300.310 271.720,300.358 271.403 C 300.406 271.087,300.404 270.618,300.355 270.362 C 300.306 270.105,300.266 270.365,300.268 270.938 M253.284 290.356 C 253.543 290.406,253.918 290.404,254.117 290.351 C 254.316 290.299,254.104 290.259,253.646 290.261 C 253.188 290.263,253.025 290.306,253.284 290.356 M257.240 290.355 C 257.497 290.405,257.919 290.405,258.177 290.355 C 258.435 290.306,258.224 290.265,257.708 290.265 C 257.193 290.265,256.982 290.306,257.240 290.355 M253.073 304.314 C 253.331 304.363,253.753 304.363,254.010 304.314 C 254.268 304.264,254.057 304.223,253.542 304.223 C 253.026 304.223,252.815 304.264,253.073 304.314 "
              stroke="none" fill="#cde0f4" fill-rule="evenodd"/>
        <path id="path6"
              d="M273.125 65.899 C 273.125 65.934,273.430 66.239,273.802 66.576 L 274.479 67.188 273.867 66.510 C 273.297 65.879,273.125 65.738,273.125 65.899 M276.663 69.427 C 277.864 70.659,278.872 71.667,278.903 71.667 C 279.053 71.667,278.799 71.400,276.719 69.371 L 274.479 67.188 276.663 69.427 M304.271 97.292 C 306.101 99.125,307.646 100.625,307.703 100.625 C 307.761 100.625,306.310 99.125,304.479 97.292 C 302.649 95.458,301.104 93.958,301.047 93.958 C 300.989 93.958,302.440 95.458,304.271 97.292 "
              stroke="none" fill="#848484" fill-rule="evenodd"/>
        <path id="path7"
              d="M267.292 60.065 C 267.292 60.101,267.596 60.406,267.969 60.742 L 268.646 61.354 268.034 60.677 C 267.464 60.046,267.292 59.904,267.292 60.065 M297.188 90.208 C 299.248 92.271,300.980 93.958,301.037 93.958 C 301.095 93.958,299.456 92.271,297.396 90.208 C 295.336 88.146,293.603 86.458,293.546 86.458 C 293.489 86.458,295.127 88.146,297.188 90.208 "
              stroke="none" fill="#bcbcbc" fill-rule="evenodd"/>
        <path id="path8"
              d="M260.000 52.774 C 260.000 52.809,260.305 53.114,260.677 53.451 L 261.354 54.063 260.742 53.385 C 260.172 52.754,260.000 52.613,260.000 52.774 M261.458 54.232 C 261.458 54.268,261.763 54.572,262.135 54.909 L 262.813 55.521 262.201 54.844 C 261.630 54.213,261.458 54.071,261.458 54.232 M262.917 55.690 C 262.917 55.726,263.221 56.031,263.594 56.367 L 264.271 56.979 263.659 56.302 C 263.089 55.671,262.917 55.529,262.917 55.690 M264.375 57.149 C 264.375 57.184,264.680 57.489,265.052 57.826 L 265.729 58.438 265.117 57.760 C 264.547 57.129,264.375 56.988,264.375 57.149 "
              stroke="none" fill="#d4d4d4" fill-rule="evenodd"/>
    </g>
</svg>