<svg id="svg" version="1.1" xmlns="http://www.w3.org/2000/svg" width="16"
     height="16" viewBox="0, 0, 400,400">
    <g id="svgg">
        <path id="path0"
              d="M65.625 200.000 L 65.625 375.000 200.208 375.000 L 334.792 375.000 334.787 241.198 L 334.783 107.396 322.652 95.205 C 302.074 74.527,264.263 36.441,258.485 30.573 L 252.998 25.000 159.311 25.000 L 65.625 25.000 65.625 200.000 M242.500 78.542 L 242.500 117.708 281.354 117.708 L 320.208 117.708 320.208 239.271 L 320.208 360.833 200.104 360.833 L 80.000 360.833 80.000 200.104 L 80.000 39.375 161.250 39.375 L 242.500 39.375 242.500 78.542 M288.142 80.796 C 300.336 93.093,310.344 103.242,310.382 103.349 C 310.425 103.469,300.142 103.523,283.611 103.490 L 256.771 103.438 256.717 76.667 C 256.688 61.943,256.716 49.760,256.779 49.593 C 256.857 49.388,258.343 50.751,261.433 53.864 C 263.929 56.380,275.948 68.499,288.142 80.796 "
              stroke="none" fill="#fbfbfb" fill-rule="evenodd"/>
        <path id="path1"
              d="M247.188 172.822 C 224.443 175.537,209.691 190.714,211.250 209.792 C 212.623 226.598,224.346 236.656,252.500 245.180 C 276.252 252.372,282.509 257.191,283.258 268.869 C 284.121 282.330,273.993 290.241,255.833 290.290 C 236.792 290.342,225.215 281.946,224.046 267.240 L 223.901 265.417 215.461 265.417 L 207.020 265.417 207.154 267.552 C 208.502 289.052,228.345 303.993,255.625 304.050 C 283.142 304.107,300.045 291.123,300.088 269.896 C 300.129 250.083,288.800 239.629,257.083 230.211 C 235.244 223.725,227.482 217.155,228.184 205.749 C 228.979 192.825,238.981 185.873,256.146 186.310 C 272.616 186.730,281.910 194.792,283.038 209.635 L 283.161 211.250 291.612 211.250 L 300.063 211.250 299.928 209.190 C 298.688 190.282,284.465 176.230,263.292 172.999 C 260.232 172.531,250.514 172.425,247.188 172.822 M100.625 181.041 L 100.625 187.915 135.209 187.968 L 169.793 188.021 167.419 191.458 C 166.113 193.349,150.316 216.224,132.315 242.292 L 99.586 289.688 99.585 296.094 L 99.583 302.500 146.250 302.500 L 192.917 302.500 192.917 295.625 L 192.917 288.750 156.233 288.750 C 132.187 288.750,119.573 288.679,119.618 288.544 C 119.656 288.431,122.846 283.767,126.706 278.180 C 130.565 272.592,146.385 249.693,161.860 227.292 L 189.996 186.563 189.998 180.365 L 190.000 174.167 145.313 174.167 L 100.625 174.167 100.625 181.041 "
              stroke="none" fill="#1b73d3" fill-rule="evenodd"/>
        <path id="path2"
              d="M80.000 200.104 L 80.000 360.833 200.104 360.833 L 320.208 360.833 320.208 239.271 L 320.208 117.708 281.354 117.708 L 242.500 117.708 242.500 78.542 L 242.500 39.375 161.250 39.375 L 80.000 39.375 80.000 200.104 M256.875 76.489 L 256.875 103.333 283.438 103.333 C 298.047 103.333,310.000 103.270,310.000 103.194 C 310.000 103.117,305.695 98.734,300.432 93.454 C 295.170 88.174,287.518 80.479,283.428 76.354 C 279.337 72.229,271.689 64.532,266.433 59.250 L 256.875 49.645 256.875 76.489 M259.688 172.507 C 282.561 174.442,298.942 189.214,299.937 208.802 L 300.061 211.250 291.521 211.250 L 282.980 211.250 282.848 209.095 C 281.917 193.872,269.812 185.085,251.614 186.422 C 236.197 187.554,227.941 195.121,228.388 207.708 C 228.758 218.123,236.315 223.937,257.741 230.291 C 287.462 239.106,298.745 248.909,300.241 267.217 C 302.046 289.315,284.098 304.277,255.833 304.237 C 228.089 304.198,208.574 289.293,206.987 266.927 L 206.865 265.208 215.484 265.208 L 224.103 265.208 224.232 267.448 C 224.983 280.504,235.626 289.107,252.396 290.212 C 272.799 291.557,285.035 282.166,282.953 266.759 C 281.580 256.598,274.990 252.113,250.521 244.684 C 222.911 236.303,211.166 225.143,211.166 207.292 C 211.166 185.172,232.088 170.173,259.688 172.507 M190.159 180.257 L 190.215 186.451 159.863 230.361 C 143.170 254.511,127.325 277.432,124.652 281.295 C 121.979 285.159,119.792 288.370,119.792 288.431 C 119.792 288.492,136.245 288.542,156.354 288.542 L 192.917 288.542 192.917 295.521 L 192.917 302.500 146.146 302.500 L 99.375 302.500 99.375 296.146 L 99.375 289.792 114.452 267.969 C 122.744 255.966,138.532 233.115,149.538 217.188 L 169.547 188.229 135.086 188.176 L 100.625 188.124 100.625 181.041 L 100.625 173.957 145.365 174.010 L 190.104 174.063 190.159 180.257 "
              stroke="none" fill="#040404" fill-rule="evenodd"/>
        <path id="path3"
              d="M256.763 49.635 C 256.708 49.779,256.688 61.943,256.717 76.667 L 256.771 103.438 283.594 103.490 C 298.346 103.519,310.417 103.473,310.417 103.386 C 310.417 103.300,298.370 103.253,283.646 103.283 L 256.875 103.336 256.875 76.410 L 256.875 49.483 261.615 54.168 L 266.354 58.854 261.668 54.115 C 256.575 48.962,256.904 49.263,256.763 49.635 M285.104 77.917 C 288.540 81.354,291.398 84.167,291.456 84.167 C 291.513 84.167,288.749 81.354,285.313 77.917 C 281.876 74.479,279.018 71.667,278.961 71.667 C 278.904 71.667,281.668 74.479,285.104 77.917 "
              stroke="none" fill="#848484" fill-rule="evenodd"/>
        <path id="path4"
              d="M253.073 172.446 C 253.904 172.486,255.263 172.486,256.094 172.446 C 256.924 172.407,256.245 172.374,254.583 172.374 C 252.922 172.374,252.242 172.407,253.073 172.446 M259.635 172.644 C 259.836 172.696,260.164 172.696,260.365 172.644 C 260.565 172.591,260.401 172.548,260.000 172.548 C 259.599 172.548,259.435 172.591,259.635 172.644 M190.092 180.313 C 190.092 183.750,190.121 185.185,190.156 183.502 C 190.191 181.819,190.191 179.007,190.156 177.252 C 190.121 175.498,190.092 176.875,190.092 180.313 M288.958 185.104 C 289.927 186.078,290.767 186.875,290.824 186.875 C 290.881 186.875,290.136 186.078,289.167 185.104 C 288.198 184.130,287.358 183.333,287.301 183.333 C 287.244 183.333,287.989 184.130,288.958 185.104 M220.202 184.948 L 218.854 186.354 220.260 185.006 C 221.567 183.754,221.762 183.542,221.609 183.542 C 221.577 183.542,220.944 184.174,220.202 184.948 M117.865 188.073 C 127.404 188.103,143.013 188.103,152.552 188.073 C 162.091 188.043,154.286 188.018,135.208 188.018 C 116.130 188.018,108.326 188.043,117.865 188.073 M276.354 193.750 C 277.034 194.438,277.638 195.000,277.695 195.000 C 277.753 195.000,277.243 194.438,276.563 193.750 C 275.882 193.063,275.279 192.500,275.221 192.500 C 275.164 192.500,275.674 193.063,276.354 193.750 M211.098 205.417 C 211.098 205.932,211.139 206.143,211.189 205.885 C 211.238 205.628,211.238 205.206,211.189 204.948 C 211.139 204.690,211.098 204.901,211.098 205.417 M228.185 205.729 C 228.186 206.302,228.227 206.512,228.274 206.195 C 228.322 205.878,228.321 205.410,228.272 205.153 C 228.222 204.897,228.183 205.156,228.185 205.729 M228.178 208.021 C 228.180 208.479,228.223 208.642,228.272 208.383 C 228.322 208.124,228.320 207.749,228.268 207.550 C 228.216 207.350,228.175 207.563,228.178 208.021 M211.098 209.167 C 211.098 209.682,211.139 209.893,211.189 209.635 C 211.238 209.378,211.238 208.956,211.189 208.698 C 211.139 208.440,211.098 208.651,211.098 209.167 M282.969 210.521 C 282.972 210.979,283.014 211.142,283.064 210.883 C 283.114 210.624,283.112 210.249,283.060 210.050 C 283.008 209.850,282.967 210.063,282.969 210.521 M233.021 218.750 C 233.701 219.438,234.305 220.000,234.362 220.000 C 234.419 220.000,233.909 219.438,233.229 218.750 C 232.549 218.063,231.945 217.500,231.888 217.500 C 231.831 217.500,232.341 218.063,233.021 218.750 M219.792 228.854 C 220.414 229.484,220.970 230.000,221.027 230.000 C 221.085 230.000,220.622 229.484,220.000 228.854 C 219.378 228.224,218.822 227.708,218.764 227.708 C 218.707 227.708,219.169 228.224,219.792 228.854 M206.891 265.573 C 206.901 265.791,206.950 265.833,207.013 265.677 C 207.095 265.475,208.995 265.417,215.527 265.417 L 223.937 265.417 224.013 266.510 L 224.090 267.604 224.128 266.406 L 224.167 265.208 215.521 265.208 C 207.419 265.208,206.876 265.231,206.891 265.573 M283.182 268.958 C 283.182 269.474,283.222 269.685,283.272 269.427 C 283.322 269.169,283.322 268.747,283.272 268.490 C 283.222 268.232,283.182 268.443,283.182 268.958 M283.185 271.146 C 283.186 271.719,283.227 271.928,283.274 271.612 C 283.322 271.295,283.321 270.826,283.272 270.570 C 283.222 270.314,283.183 270.573,283.185 271.146 M230.417 281.771 C 231.155 282.516,231.806 283.125,231.863 283.125 C 231.920 283.125,231.363 282.516,230.625 281.771 C 229.887 281.026,229.236 280.417,229.179 280.417 C 229.121 280.417,229.678 281.026,230.417 281.771 M119.583 288.594 C 119.583 288.680,136.107 288.727,156.302 288.699 C 176.497 288.672,187.068 288.625,179.792 288.595 C 144.632 288.453,119.583 288.452,119.583 288.594 M99.468 296.146 C 99.468 299.698,99.496 301.180,99.531 299.440 C 99.566 297.700,99.566 294.794,99.531 292.982 C 99.496 291.170,99.468 292.594,99.468 296.146 M251.823 290.355 C 252.081 290.405,252.503 290.405,252.760 290.355 C 253.018 290.306,252.807 290.265,252.292 290.265 C 251.776 290.265,251.565 290.306,251.823 290.355 M258.594 290.352 C 258.794 290.404,259.122 290.404,259.323 290.352 C 259.523 290.300,259.359 290.257,258.958 290.257 C 258.557 290.257,258.393 290.300,258.594 290.352 M291.245 292.031 L 289.479 293.854 291.302 292.088 C 292.305 291.117,293.125 290.296,293.125 290.265 C 293.125 290.113,292.886 290.338,291.245 292.031 M218.542 291.354 C 218.930 291.755,219.295 292.083,219.353 292.083 C 219.410 292.083,219.139 291.755,218.750 291.354 C 218.361 290.953,217.996 290.625,217.939 290.625 C 217.882 290.625,218.153 290.953,218.542 291.354 M250.260 304.102 C 250.461 304.154,250.789 304.154,250.990 304.102 C 251.190 304.050,251.026 304.007,250.625 304.007 C 250.224 304.007,250.060 304.050,250.260 304.102 M260.885 304.102 C 261.086 304.154,261.414 304.154,261.615 304.102 C 261.815 304.050,261.651 304.007,261.250 304.007 C 260.849 304.007,260.685 304.050,260.885 304.102 M255.163 304.321 C 255.769 304.363,256.706 304.362,257.247 304.320 C 257.787 304.277,257.292 304.242,256.146 304.243 C 255.000 304.243,254.558 304.278,255.163 304.321 "
              stroke="none" fill="#0b355f" fill-rule="evenodd"/>
        <path id="path5"
              d="M271.146 63.958 C 272.402 65.219,273.477 66.250,273.535 66.250 C 273.592 66.250,272.611 65.219,271.354 63.958 C 270.098 62.698,269.023 61.667,268.965 61.667 C 268.908 61.667,269.889 62.698,271.146 63.958 M300.833 93.854 C 302.607 95.630,304.104 97.083,304.162 97.083 C 304.219 97.083,302.815 95.630,301.042 93.854 C 299.268 92.078,297.771 90.625,297.713 90.625 C 297.656 90.625,299.060 92.078,300.833 93.854 "
              stroke="none" fill="#5d5d5d" fill-rule="evenodd"/>
        <path id="path6"
              d="M275.833 68.599 C 275.833 68.630,276.560 69.357,277.448 70.214 L 279.063 71.771 277.505 70.156 C 276.059 68.657,275.833 68.447,275.833 68.599 M305.833 98.854 C 306.802 99.828,307.642 100.625,307.699 100.625 C 307.756 100.625,307.011 99.828,306.042 98.854 C 305.073 97.880,304.233 97.083,304.176 97.083 C 304.119 97.083,304.864 97.880,305.833 98.854 "
              stroke="none" fill="#7c7c7c" fill-rule="evenodd"/>
        <path id="path7" d="" stroke="none" fill="#2c2c2c" fill-rule="evenodd"/>
        <path id="path8"
              d="M122.985 174.115 C 135.341 174.144,155.497 174.144,167.777 174.115 C 180.057 174.085,169.948 174.061,145.313 174.061 C 120.677 174.061,110.630 174.085,122.985 174.115 M291.033 246.719 C 291.896 247.639,292.083 247.804,292.083 247.648 C 292.083 247.614,291.638 247.169,291.094 246.658 L 290.104 245.729 291.033 246.719 M300.257 268.750 C 300.257 269.151,300.300 269.315,300.352 269.115 C 300.404 268.914,300.404 268.586,300.352 268.385 C 300.300 268.185,300.257 268.349,300.257 268.750 M300.261 271.146 C 300.263 271.604,300.306 271.767,300.356 271.508 C 300.406 271.249,300.404 270.874,300.351 270.675 C 300.299 270.475,300.259 270.688,300.261 271.146 "
              stroke="none" fill="#242424" fill-rule="evenodd"/>
    </g>
</svg>